<?xml version="1.0"?>
<svg xmlns="http://www.w3.org/2000/svg" id="Layer_1" data-name="Layer 1" viewBox="0 0 64 64"><title>Dusk Part 1</title><rect x="7" y="7" width="50" height="50" rx="6" ry="6" style="fill:#6e91ce;"/><polygon points="46 35 39 35 39 31.06 41 28 47 29 47 21 38 22 32 27 32 35 25 35 25 42 32 42 32 57 39 57 39 42 46 42 46 35" style="fill:#faefde;"/><path d="M11,7H53a4,4,0,0,1,4,4v0a3,3,0,0,1-3,3H10a3,3,0,0,1-3-3v0a4,4,0,0,1,4-4Z" style="fill:#80a6dd;"/><path d="M51,6H13a7,7,0,0,0-7,7V51a7,7,0,0,0,7,7H51a7,7,0,0,0,7-7V13A7,7,0,0,0,51,6ZM33,56V41H26V36h7V31.29c0-5.82,3.21-9.29,8.6-9.29a42.16,42.16,0,0,1,4.72.27v5.39H42.63c-4.24,0-4.73,2.71-4.73,4.75V36h7.87L45,41H37.9V56Zm23-5a5,5,0,0,1-5,5H39.9V43h5.91a1,1,0,0,0,1-.84l1.14-7a1,1,0,0,0-1-1.16h-7V32.4c0-1.9.39-2.75,2.73-2.75h4.65a1,1,0,0,0,1-1V21.41a1,1,0,0,0-.9-1c-1.49-.15-4.44-.42-5.82-.42C35.12,20,31,24.43,31,31.29V34H25a1,1,0,0,0-1,1v7a1,1,0,0,0,1,1h6V56H13a5,5,0,0,1-5-5V13a5,5,0,0,1,5-5H51a5,5,0,0,1,5,5Z" style="fill:#8d6c9f;"/><path d="M17,12a1,1,0,0,0-1,1v2a1,1,0,0,0,2,0V13A1,1,0,0,0,17,12Z" style="fill:#8d6c9f;"/><path d="M12,12a1,1,0,0,0-1,1v2a1,1,0,0,0,2,0V13A1,1,0,0,0,12,12Z" style="fill:#8d6c9f;"/><path d="M32,12a1,1,0,0,0-1,1v2a1,1,0,0,0,2,0V13A1,1,0,0,0,32,12Z" style="fill:#8d6c9f;"/><path d="M37,12a1,1,0,0,0-1,1v2a1,1,0,0,0,2,0V13A1,1,0,0,0,37,12Z" style="fill:#8d6c9f;"/><path d="M42,12a1,1,0,0,0-1,1v2a1,1,0,0,0,2,0V13A1,1,0,0,0,42,12Z" style="fill:#8d6c9f;"/><path d="M47,12a1,1,0,0,0-1,1v2a1,1,0,0,0,2,0V13A1,1,0,0,0,47,12Z" style="fill:#8d6c9f;"/><path d="M52,12a1,1,0,0,0-1,1v2a1,1,0,0,0,2,0V13A1,1,0,0,0,52,12Z" style="fill:#8d6c9f;"/><path d="M22,12a1,1,0,0,0-1,1v2a1,1,0,0,0,2,0V13A1,1,0,0,0,22,12Z" style="fill:#8d6c9f;"/><path d="M27,12a1,1,0,0,0-1,1v2a1,1,0,0,0,2,0V13A1,1,0,0,0,27,12Z" style="fill:#8d6c9f;"/></svg>
