<?xml version="1.0"?>
<svg xmlns="http://www.w3.org/2000/svg" id="Layer_1" data-name="Layer 1" viewBox="0 0 64 64"><defs><style>.cls-1{fill:#faefde;}.cls-2{fill:#efd8be;}.cls-3{fill:#cda1a7;}.cls-4{fill:#bbdef9;}.cls-5{fill:#ffeb9b;}.cls-6{fill:#d2edff;}.cls-7{fill:#f3f3f3;}.cls-8{fill:#8d6c9f;}</style></defs><title>Dusk Part 1</title><path class="cls-1" d="M7,23H57a0,0,0,0,1,0,0V51a6,6,0,0,1-6,6H13a6,6,0,0,1-6-6V23A0,0,0,0,1,7,23Z"/><path class="cls-2" d="M6.89,51H57a0,0,0,0,1,0,0v1.23a5,5,0,0,1-5,5H11.89a5,5,0,0,1-5-5V51A0,0,0,0,1,6.89,51Z"/><path class="cls-3" d="M13,7H51a6,6,0,0,1,6,6V23a0,0,0,0,1,0,0H7a0,0,0,0,1,0,0V13A6,6,0,0,1,13,7Z"/><rect class="cls-4" x="45" y="11" width="8" height="6"/><circle class="cls-5" cx="32" cy="32" r="13"/><circle class="cls-4" cx="32" cy="32" r="10"/><circle class="cls-6" cx="32" cy="32" r="5"/><circle class="cls-7" cx="30" cy="30" r="3"/><circle class="cls-7" cx="35.5" cy="35.5" r="1.5"/><path class="cls-8" d="M51,6H13a7,7,0,0,0-7,7V51a7,7,0,0,0,7,7H51a7,7,0,0,0,7-7V13A7,7,0,0,0,51,6ZM13,8h1v3a1,1,0,0,0,2,0V8H51a5,5,0,0,1,5,5v9H42a.78.78,0,0,1-.25,0,14,14,0,0,0-19.53,0A1.27,1.27,0,0,1,22,22H8V13A5,5,0,0,1,13,8ZM32,20A12,12,0,1,1,20,32,12,12,0,0,1,32,20ZM51,56H13a5,5,0,0,1-5-5V24H20.53a14,14,0,1,0,22.95,0H56V51A5,5,0,0,1,51,56Z"/><path class="cls-8" d="M32,42A10,10,0,1,0,22,32,10,10,0,0,0,32,42Zm0-18a8,8,0,1,1-8,8A8,8,0,0,1,32,24Z"/><path class="cls-8" d="M47,18h4a3,3,0,0,0,3-3V13a3,3,0,0,0-3-3H47a3,3,0,0,0-3,3v2A3,3,0,0,0,47,18Zm-1-5a1,1,0,0,1,1-1h4a1,1,0,0,1,1,1v2a1,1,0,0,1-1,1H47a1,1,0,0,1-1-1Z"/><path class="cls-8" d="M12,49a1,1,0,0,0-1,1v2a1,1,0,0,0,2,0V50A1,1,0,0,0,12,49Z"/><path class="cls-8" d="M17,49a1,1,0,0,0-1,1v2a1,1,0,0,0,2,0V50A1,1,0,0,0,17,49Z"/><path class="cls-8" d="M22,49a1,1,0,0,0-1,1v2a1,1,0,0,0,2,0V50A1,1,0,0,0,22,49Z"/><path class="cls-8" d="M27,49a1,1,0,0,0-1,1v2a1,1,0,0,0,2,0V50A1,1,0,0,0,27,49Z"/><path class="cls-8" d="M37,49a1,1,0,0,0-1,1v2a1,1,0,0,0,2,0V50A1,1,0,0,0,37,49Z"/><path class="cls-8" d="M32,49a1,1,0,0,0-1,1v2a1,1,0,0,0,2,0V50A1,1,0,0,0,32,49Z"/><path class="cls-8" d="M42,49a1,1,0,0,0-1,1v2a1,1,0,0,0,2,0V50A1,1,0,0,0,42,49Z"/><path class="cls-8" d="M47,49a1,1,0,0,0-1,1v2a1,1,0,0,0,2,0V50A1,1,0,0,0,47,49Z"/><path class="cls-8" d="M52,49a1,1,0,0,0-1,1v2a1,1,0,0,0,2,0V50A1,1,0,0,0,52,49Z"/><path class="cls-8" d="M15,20a1,1,0,0,0,1-1V15a1,1,0,0,0-2,0v4A1,1,0,0,0,15,20Z"/></svg>
